Coordinates
nRows=10
nColumns=38

# SIMM Motion File Header:
name Coordinates
datacolumns 38
datarows 10
otherdata 1
range 1.65650000000000010000 1.66550000000000000000

Units are S.I. units (second, meters, Newtons, ...)
Angles are in degrees.

endheader
time	pelvis_tilt	pelvis_list	pelvis_rotation	pelvis_tx	pelvis_ty	pelvis_tz	hip_flexion_r	hip_adduction_r	hip_rotation_r	knee_angle_r	ankle_angle_r	subtalar_angle_r	mtp_angle_r	hip_flexion_l	hip_adduction_l	hip_rotation_l	knee_angle_l	ankle_angle_l	subtalar_angle_l	mtp_angle_l	lumbar_extension	lumbar_bending	lumbar_rotation	arm_flex_r	arm_add_r	arm_rot_r	elbow_flex_r	pro_sup_r	wrist_flex_r	wrist_dev_r	arm_flex_l	arm_add_l	arm_rot_l	elbow_flex_l	pro_sup_l	wrist_flex_l	wrist_dev_l
      1.65650000000000010000	     -3.57499433252056730000	     -6.07035710051715860000	     -5.44331711208753080000	      1.13312494060851670000	      0.93107076783142773000	     -0.42131649904830654000	      6.62303317715113950000	     13.91338373119774600000	      3.55942882867854800000	    -44.99092861917792200000	     27.11870753868675600000	     -0.00000000000000285870	     -0.00000000000002585056	     30.67375618392472700000	     -2.16929498840663420000	     -1.58454210317856760000	   -113.57865855205780000000	     11.60984861900591300000	      0.00000000000000818554	      0.00000000000001432507	    -16.07396742954966100000	      9.26255112573392660000	     15.32803517807718100000	    -15.75388760711532200000	    -19.98487590950505300000	    -14.57667427036764400000	    128.29978152976773000000	     95.74164117085219100000	     -0.00000000000000070215	      0.00000000000000381032	    -34.16159429852425000000	    -19.70242914984307700000	     -0.00538269994370273350	    107.13706214959232000000	     88.33707777064201100000	      0.00000000000000071634	     -0.00000000000000356192
      1.65750000000000000000	     -3.64534237229208460000	     -5.92994003092218410000	     -5.39509225776935520000	      1.13333628274974220000	      0.93133262160230890000	     -0.42124086782906583000	      6.17904321959988590000	     13.73522448012155600000	      3.64736604307107060000	    -44.63170469639523900000	     26.94723091554251600000	     -0.00000000000000286067	     -0.00000000000002627787	     31.13808340584967000000	     -2.01872713762826890000	     -1.51642990925553200000	   -113.33529783652642000000	     11.74979228729034900000	      0.00000000000000824236	      0.00000000000001454339	    -15.93420833637819600000	      9.08815635892877970000	     15.40845452144050200000	    -15.63843628803149400000	    -19.94275266668992700000	    -14.55790233657160500000	    128.61575931597352000000	     95.86474416278129200000	     -0.00000000000000071256	      0.00000000000000386121	    -34.54084956217571500000	    -19.82708235812415900000	     -0.09182866484498988800	    107.41302349756934000000	     88.32470457503801200000	      0.00000000000000072119	     -0.00000000000000364942
      1.65850000000000010000	     -3.71503198879567220000	     -5.78778094389924110000	     -5.34727560742299970000	      1.13355745928182890000	      0.93160419716497433000	     -0.42116693144658529000	      5.73292197381415300000	     13.55379976609624900000	      3.73456379986321220000	    -44.26625710270145200000	     26.76196370464907300000	     -0.00000000000000287154	     -0.00000000000002664853	     31.59620628830738600000	     -1.86590484714330510000	     -1.45253206825595530000	   -113.08159390548552000000	     11.88810253795151300000	      0.00000000000000829886	      0.00000000000001476441	    -15.79449002950188700000	      8.91146185636288200000	     15.48641459762933400000	    -15.52222986113803700000	    -19.90381072385031300000	    -14.53288911401600600000	    128.93039708652958000000	     95.98618411375069600000	     -0.00000000000000072575	      0.00000000000000391199	    -34.92405549247559500000	    -19.94782828315357600000	     -0.18447821087931246000	    107.68945319599710000000	     88.31565487257137200000	      0.00000000000000072559	     -0.00000000000000372359
      1.65950000000000000000	     -3.78401832250377710000	     -5.64385528922786330000	     -5.29985463814409650000	      1.13378848601980090000	      0.93188537646486158000	     -0.42109480982674030000	      5.28472545050920320000	     13.36908184536820300000	      3.82097990755600980000	    -43.89473140423511700000	     26.56287601362409500000	     -0.00000000000000288053	     -0.00000000000002699219	     32.04800003613553400000	     -1.71082550236814380000	     -1.39283991037979480000	   -112.81759602575409000000	     12.02472000056956600000	      0.00000000000000835472	      0.00000000000001497849	    -15.65486450336185900000	      8.73245453116809140000	     15.56185654016690600000	    -15.40522823135850700000	    -19.86808987717670000000	    -14.50155967327212800000	    129.24351155361521000000	     96.10600097142183500000	     -0.00000000000000073868	      0.00000000000000396076	    -35.31120403512495200000	    -20.06444580406796900000	     -0.28336333913106881000	    107.96614595253999000000	     88.30975023120517200000	      0.00000000000000073031	     -0.00000000000000378999
      1.66050000000000010000	     -3.85225849588250880000	     -5.49813698291932870000	     -5.25281794123134380000	      1.13402935651131690000	      0.93217602856476400000	     -0.42102461038653616000	      4.83451796538011450000	     13.18104451678843600000	      3.90656670274662020000	    -43.51728321220852500000	     26.34994899513840500000	     -0.00000000000000289488	     -0.00000000000002726501	     32.49334946255113700000	     -1.55348614095500710000	     -1.33733946433676730000	   -112.54335849698190000000	     12.15958049568858500000	      0.00000000000000841342	      0.00000000000001517585	    -15.51538400494130700000	      8.55111725418419330000	     15.63472637420549900000	    -15.28739623718300100000	    -19.83562190889949400000	    -14.46385212676693600000	    129.55493258561589000000	     96.22424146698597300000	     -0.00000000000000075078	      0.00000000000000401037	    -35.70228286600129100000	    -20.17672234791576700000	     -0.38850743694202211000	    108.24291431009279000000	     88.30680929075757000000	      0.00000000000000073492	     -0.00000000000000385340
      1.66150000000000000000	     -3.91971179234838680000	     -5.35059884601480280000	     -5.20615562262835500000	      1.13428004120663180000	      0.93247600996222801000	     -0.42095642734709587000	      4.38237233017775370000	     12.98966358910852000000	      3.99127079483460360000	    -43.13407805015852100000	     26.12317434118021400000	     -0.00000000000000290298	     -0.00000000000002759326	     32.93214928184576000000	     -1.39388404485172600000	     -1.28601154883566290000	   -112.25894067119881000000	     12.29261497242595300000	      0.00000000000000847096	      0.00000000000001538222	    -15.37610109414623400000	      8.36742923991847930000	     15.70497572475185800000	    -15.16870336638091200000	    -19.80643088859348900000	    -14.41971757511905500000	    129.86450298825801000000	     96.34095810436288300000	     -0.00000000000000076212	      0.00000000000000405905	    -36.09727484827917000000	    -20.28445420256695500000	     -0.49992511698005643000	    108.51958852192962000000	     88.30664931523458000000	      0.00000000000000074045	     -0.00000000000000391706
      1.66250000000000010000	     -3.98633983638036190000	     -5.20121310404571880000	     -5.15985960941490520000	      1.13454048729122530000	      0.93278516493433472000	     -0.42089034145348114000	      3.92836987904591920000	     12.79491734878273100000	      4.07503296977728270000	    -42.74529105666314200000	     25.88255378263542300000	     -0.00000000000000287358	     -0.00000000000002795975	     33.36430424397628500000	     -1.23201731732119260000	     -1.23883177521201950000	   -111.96440686810365000000	     12.42374971665158200000	      0.00000000000000852818	      0.00000000000001558126	    -15.23706856845681800000	      8.18136659970636160000	     15.77256239406099400000	    -15.04912356242976500000	    -19.78053358710470600000	    -14.36911992553927000000	    130.17207807927613000000	     96.45620791557630000000	     -0.00000000000000077383	      0.00000000000000410715	    -36.49615756759524000000	    -20.38744671368797500000	     -0.61762209546207658000	    108.79601608083186000000	     88.30908756775411900000	      0.00000000000000074473	     -0.00000000000000399053
      1.66350000000000000000	     -4.05210679863002370000	     -5.04995194681946290000	     -5.11392386812675960000	      1.13481061917022070000	      0.93310332586514633000	     -0.42082642009795335000	      3.47260036140819620000	     12.59678703040999700000	      4.15778825408203900000	    -42.35110653480919000000	     25.62809860168442500000	     -0.00000000000000280834	     -0.00000000000002829001	     33.78972914084001600000	     -1.06788544866631980000	     -1.19577046242879330000	   -111.65982619114953000000	     12.55290682661774900000	      0.00000000000000858716	      0.00000000000001576868	    -15.09833922539459100000	      7.99290306309720930000	     15.83745081073488100000	    -14.92863512684769800000	    -19.75794000103392600000	    -14.31203558244846800000	    130.47752505656331000000	     96.57005098377402400000	     -0.00000000000000078320	      0.00000000000000415365	    -36.89890294687163000000	    -20.48551436634577500000	     -0.74159510962077735000	    109.07206089987191000000	     88.31394250928470100000	      0.00000000000000075015	     -0.00000000000000408464
      1.66450000000000010000	     -4.11698902460942500000	     -4.89678845967515300000	     -5.06834482536583320000	      1.13509033595046830000	      0.93343029680983536000	     -0.42076471725751519000	      3.01517351879426480000	     12.39525869682079300000	      4.23946497439348850000	    -41.95172042947145000000	     25.35982914053179000000	     -0.00000000000000275034	     -0.00000000000002863538	     34.20836064509135400000	     -0.90149074255860795000	     -1.15679133325246490000	   -111.34527431379828000000	     12.68000331722042900000	      0.00000000000000864517	      0.00000000000001597011	    -14.95995491946798100000	      7.80201229108827480000	     15.89961206556226800000	    -14.80722256715221100000	    -19.73865334922710300000	    -14.24845317336915200000	    130.78072196212725000000	     96.68254948442576300000	     -0.00000000000000079395	      0.00000000000000419982	    -37.30547826177782200000	    -20.57848069892633800000	     -0.87183186908130006000	    109.34760155278424000000	     88.32103535206623200000	      0.00000000000000075528	     -0.00000000000000418078
      1.66550000000000000000	     -4.18098773852857160000	     -4.74169780239337960000	     -5.02312172796809180000	      1.13537950784860000000	      0.93376583166672400000	     -0.42070527350121306000	      2.55623446053050830000	     12.19032572635971500000	      4.31998360216995710000	    -41.54734383003334800000	     25.07777446645009400000	     -0.00000000000000267643	     -0.00000000000002906419	     34.62017299727618500000	     -0.73284009302544595000	     -1.12184979394869490000	   -111.02083583032207000000	     12.80494968223520800000	      0.00000000000000870149	      0.00000000000001618477	    -14.82193212280292000000	      7.60867077458230940000	     15.95902385302236400000	    -14.68487910190785500000	    -19.72266987459215700000	    -14.17837328078962100000	    131.08155655553156000000	     96.79376692347108200000	     -0.00000000000000080575	      0.00000000000000424472	    -37.71584762982211500000	    -20.66617818160603500000	     -1.00831102665460340000	    109.62252923736547000000	     88.33019173663214500000	      0.00000000000000076016	     -0.00000000000000428840
